 <svg version="1.0" xmlns="http://www.w3.org/2000/svg" width="700.000000pt" height="293.000000pt" viewBox="0 0 700.000000 293.000000" preserveAspectRatio="xMidYMid meet">
<metadata>
Created by potrace 1.12, written by Peter Selinger 2001-2015
</metadata>
<g transform="translate(0.000000,293.000000) scale(0.100000,-0.100000)" fill="#000000" stroke="none">
<path d="M1920 2535 l-325 -325 -322 322 -323 323 -325 -325 -325 -325 325
-325 325 -325 326 325 325 325 320 -325 319 -325 325 325 325 325 322 -323
323 -322 322 322 323 323 325 -325 325 -325 323 323 322 322 320 -320 c176
-176 324 -320 330 -320 5 0 155 145 333 323 l322 322 -325 325 -325 325 -323
-323 -322 -322 -325 325 -325 325 -325 -325 -325 -325 -325 325 -325 326 -319
-326 -320 -326 -325 325 -326 326 -325 -325z m3220 -630 l-305 -305 -305 305
-305 305 305 305 305 305 305 -305 305 -305 -305 -305z m1590 300 c0 -6 -135
-145 -300 -310 l-300 -300 -307 308 -308 307 305 305 305 305 302 -302 c167
-167 303 -307 303 -313z m-5478 308 c164 -164 298 -302 298 -308 0 -6 -135
-145 -300 -310 l-300 -300 -300 300 c-165 165 -300 304 -300 310 0 10 590 605
600 605 3 0 139 -134 302 -297z m1296 -6 l302 -302 -303 -303 -302 -302 -305
305 -305 305 300 300 c165 165 302 300 305 300 3 0 141 -136 308 -303z m1300
0 l303 -303 -306 -298 -305 -298 -305 298 -306 298 303 303 c167 167 305 303
308 303 3 0 141 -136 308 -303z"></path>
<path d="M4597 2442 l-237 -237 235 -235 235 -235 238 238 237 237 -235 235
-235 235 -238 -238z"></path>
<path d="M5890 2445 c-192 -192 -232 -237 -221 -247 7 -7 110 -113 229 -235
119 -123 221 -223 227 -223 5 0 116 106 245 235 l235 235 -235 235 c-129 129
-237 235 -240 235 -3 0 -111 -106 -240 -235z"></path>
<path d="M710 2445 l-235 -235 238 -238 237 -237 237 237 238 238 -235 235
c-129 129 -237 235 -240 235 -3 0 -111 -106 -240 -235z"></path>
<path d="M2007 2442 l-237 -237 235 -235 235 -235 238 238 237 237 -235 235
-235 235 -238 -238z"></path>
<path d="M3302 2437 l-232 -232 235 -235 235 -235 235 235 235 235 -232 232
c-128 128 -235 233 -238 233 -3 0 -110 -105 -238 -233z"></path>
<path d="M353 723 l2 -568 177 0 178 0 37 38 38 37 3 463 c2 254 0 477 -3 495
-3 18 -21 48 -41 67 l-35 35 -179 0 -180 0 3 -567z m315 0 l-3 -448 -80 0 -80
0 -3 448 -2 447 85 0 85 0 -2 -447z"></path>
<path d="M973 1268 c-43 -48 -43 -47 -43 -592 l0 -526 60 0 60 0 0 225 0 225
80 0 80 0 0 -225 0 -226 63 3 62 3 3 499 c1 336 -1 511 -9 539 -6 22 -23 53
-39 69 -28 28 -29 28 -162 28 -127 0 -136 -1 -155 -22z m237 -318 l0 -220 -80
0 -80 0 0 220 0 220 80 0 80 0 0 -220z"></path>
<path d="M1472 723 l3 -568 60 0 60 0 3 222 2 223 50 0 c43 0 50 -3 54 -22 2
-13 16 -88 30 -168 15 -80 31 -171 38 -203 l11 -57 65 0 65 0 -6 38 c-6 37
-32 166 -63 312 -9 41 -18 85 -20 96 -2 12 4 28 13 35 38 32 43 71 43 313 0
351 4 346 -245 346 l-165 0 2 -567z m288 212 l0 -235 -80 0 -80 0 0 235 0 235
80 0 80 0 0 -235z"></path>
<path d="M2020 720 l0 -570 60 0 60 0 0 260 0 260 79 0 80 0 5 -42 c3 -24 8
-95 12 -158 3 -63 9 -160 13 -215 l6 -100 63 -3 62 -3 0 63 c0 35 -7 124 -15
198 -8 74 -15 158 -15 185 0 101 -40 175 -95 175 -14 0 -25 2 -25 3 0 2 38
118 85 258 47 140 85 255 85 257 0 1 -29 2 -65 2 l-64 0 -22 -72 c-12 -40 -49
-156 -83 -258 -54 -161 -65 -185 -84 -188 l-22 -3 0 260 0 261 -60 0 -60 0 0
-570z"></path>
<path d="M2898 1267 c-14 -12 -31 -32 -37 -44 -8 -15 -11 -174 -11 -503 0
-530 -1 -523 61 -554 40 -20 261 -22 298 -3 54 27 66 59 69 183 l4 114 -61 0
-61 0 0 -105 0 -105 -95 0 -95 0 0 470 0 470 95 0 95 0 0 -105 0 -106 58 3 57
3 3 80 c5 117 -4 159 -39 195 l-31 30 -141 0 c-133 0 -144 -2 -169 -23z"></path>
<path d="M3452 1274 c-52 -36 -52 -33 -52 -599 l0 -525 60 0 60 0 0 225 0 225
80 0 80 0 0 -225 0 -225 75 0 75 0 0 501 c0 355 -3 513 -12 541 -6 21 -27 52
-45 68 -34 30 -34 30 -166 30 -104 0 -137 -3 -155 -16z m228 -324 l0 -220 -80
0 -80 0 0 220 0 220 80 0 80 0 0 -220z"></path>
<path d="M3940 720 l0 -570 75 0 75 0 0 225 0 225 45 0 c41 0 45 -2 45 -24 0
-14 6 -53 14 -88 7 -35 19 -94 25 -133 13 -75 30 -159 38 -187 3 -15 16 -18
69 -18 61 0 64 1 60 23 -3 12 -9 49 -15 82 -10 52 -51 259 -67 337 -5 21 0 32
27 56 l34 30 3 244 c4 268 -1 302 -49 342 -30 26 -32 26 -205 26 l-174 0 0
-570z m310 215 l0 -235 -80 0 -80 0 0 235 0 235 80 0 80 0 0 -235z"></path>
<path d="M4490 720 l0 -570 70 0 70 0 0 510 0 510 80 0 80 0 0 -510 0 -510 75
0 75 0 0 508 c0 319 -4 521 -10 544 -7 23 -24 48 -44 63 -30 22 -42 25 -124
25 -79 0 -95 -3 -112 -20 l-20 -20 0 20 c0 18 -7 20 -70 20 l-70 0 0 -570z"></path>
<path d="M5080 720 l0 -570 60 0 60 0 0 570 0 570 -60 0 -60 0 0 -570z"></path>
<path d="M5297 1258 c2 -18 8 -64 13 -103 6 -38 12 -83 14 -100 4 -37 23 -160
41 -280 7 -49 19 -130 25 -180 6 -49 18 -130 25 -180 8 -49 20 -128 27 -175
l14 -85 81 -3 81 -3 6 53 c4 29 13 96 21 148 7 52 19 136 25 185 6 50 17 131
25 180 7 50 19 133 25 185 7 52 18 131 25 175 7 44 16 110 20 148 l7 67 -66 0
-66 0 0 -41 c0 -23 -6 -85 -14 -138 -13 -90 -38 -281 -41 -326 -5 -56 -29
-249 -39 -315 l-12 -75 -18 130 c-9 72 -23 177 -31 235 -8 58 -19 150 -25 205
-6 55 -18 151 -27 213 l-17 112 -61 0 -62 0 4 -32z"></path>
<path d="M5907 1262 c-15 -16 -32 -44 -37 -63 -6 -20 -10 -240 -10 -541 l0
-508 60 0 60 0 0 225 0 225 80 0 80 0 0 -225 0 -225 75 0 75 0 0 508 c0 319
-4 521 -10 544 -7 23 -24 48 -44 63 -31 24 -39 25 -168 25 l-134 0 -27 -28z
m243 -312 l0 -220 -80 0 -80 0 0 220 0 220 80 0 80 0 0 -220z"></path>
<path d="M6430 720 l0 -571 158 3 157 3 3 58 3 57 -101 0 -100 0 0 510 0 510
-60 0 -60 0 0 -570z"></path>
</g>
</svg>